<svg width="25" height="29" viewBox="0 0 25 29" fill="none" xmlns="http://www.w3.org/2000/svg">
<path d="M10.31 4.19192C11.0197 4.07979 11.7527 4.21653 12.3749 4.57619C12.6169 4.71567 12.8344 4.88387 13.0258 5.07532V2.10927C13.0258 1.16027 12.4077 0.378068 11.4861 0.160639C11.2235 0.0977347 10.9528 0.0662842 10.6793 0.0662842C8.75523 0.0662842 7.18947 1.63478 7.18947 3.5629C7.18947 4.68694 7.73509 5.74948 8.64993 6.4045C8.85642 6.55355 8.90428 6.84072 8.75659 7.04856C8.60754 7.25504 8.32037 7.3029 8.1139 7.15522C6.95838 6.32653 6.2692 4.98369 6.2692 3.56279C6.2692 3.26195 6.29928 2.96795 6.35808 2.68215C4.44638 3.24556 3.08026 5.01779 3.08026 7.07029C3.08026 7.72258 3.21564 8.35435 3.48092 8.94646C3.58485 9.17893 3.48092 9.45242 3.24845 9.55636C3.18692 9.58371 3.12401 9.59601 3.05974 9.59601C2.88334 9.59601 2.71514 9.49482 2.63857 9.32389C2.43482 8.86852 2.29534 8.39676 2.22013 7.90992C0.90327 8.69348 0.0814085 10.1156 0.0814085 11.684C0.0814085 12.5934 0.364472 13.4768 0.884121 14.2152C1.50357 13.7653 2.23655 13.4932 3.01052 13.4344C3.26487 13.4152 3.48641 13.6053 3.50419 13.8597C3.52334 14.1126 3.33326 14.3342 3.07893 14.3533C1.39694 14.4805 0.0800781 15.904 0.0800781 17.5956C0.0800781 18.9617 0.933376 20.1623 2.17231 20.6341C2.22017 20.0037 2.37606 19.3911 2.63724 18.8113C2.74117 18.5788 3.01465 18.4749 3.24577 18.5802C3.47824 18.6841 3.58217 18.9576 3.47824 19.1887C3.21158 19.7822 3.07758 20.4126 3.07758 21.0649C3.07758 23.1188 4.44503 24.8925 6.3554 25.4544C6.29797 25.17 6.26652 24.8746 6.26652 24.5738C6.26652 23.153 6.95574 21.8101 8.11122 20.9813C8.3177 20.8323 8.60489 20.8801 8.75391 21.0866C8.9016 21.2945 8.8551 21.5817 8.64725 21.7307C7.73377 22.3857 7.18679 23.4496 7.18679 24.5737C7.18679 26.5018 8.75255 28.0689 10.6766 28.0689C10.9501 28.0689 11.2208 28.0375 11.482 27.9745C12.4037 27.7571 13.0218 26.9749 13.0218 26.0286V23.0626C12.8303 23.254 12.6115 23.4236 12.3695 23.5631C11.8895 23.8393 11.3425 23.9843 10.7928 23.9843C10.6301 23.9843 10.4673 23.972 10.3046 23.946C10.053 23.9063 9.88072 23.6698 9.92035 23.4181C9.95998 23.1665 10.1952 22.9956 10.4482 23.0339C10.9569 23.1145 11.4615 23.0202 11.9087 22.7631C12.6102 22.3584 13.0355 21.6049 13.0204 20.7981V16.9294H11.4218C10.9788 16.9294 10.6479 17.114 10.4373 17.4778C10.3101 17.6979 10.2636 17.9468 10.3033 18.1971C10.3429 18.4487 10.172 18.6852 9.92035 18.7249C9.66872 18.7646 9.43217 18.5923 9.39251 18.342C9.32004 17.8866 9.40755 17.4149 9.63729 17.0169C10.0133 16.366 10.6465 16.0077 11.4205 16.0077H13.019V12.1226H11.4205C10.6465 12.1226 10.0134 11.7644 9.63729 11.1134C9.40755 10.7155 9.31867 10.2437 9.39251 9.78836C9.43217 9.53674 9.66874 9.36582 9.92035 9.40545C10.172 9.44508 10.3429 9.68167 10.3033 9.93329C10.2636 10.1849 10.3101 10.4338 10.4359 10.6526C10.6465 11.0177 10.9774 11.2023 11.4205 11.2023H13.019V7.33646C13.0327 6.52828 12.6074 5.77483 11.9059 5.37004C11.4601 5.11159 10.9555 5.01724 10.4455 5.09791C10.1938 5.13757 9.95728 4.96527 9.91762 4.71364C9.87796 4.46203 10.0503 4.22547 10.3019 4.18717L10.31 4.19192ZM6.46206 16.9065C6.39095 16.9462 6.31437 16.9639 6.23916 16.9639C6.07643 16.9639 5.91917 16.8778 5.83577 16.726C5.7127 16.5031 5.79338 16.2228 6.01627 16.0997C6.75608 15.6908 7.21555 14.9141 7.21555 14.0717C7.21555 13.2293 6.75608 12.4499 6.01627 12.0438C5.79338 11.9207 5.7127 11.6404 5.8344 11.4174C5.95747 11.1945 6.23779 11.1125 6.46071 11.2356C7.49451 11.8044 8.13724 12.8916 8.13724 14.0717C8.13724 15.2518 7.49452 16.3363 6.46206 16.9065ZM18.0977 5.52639C17.8735 5.27204 17.7381 4.93837 17.7381 4.57462C17.7381 3.77876 18.3849 3.13057 19.1808 3.13057C19.9766 3.13057 20.6248 3.77876 20.6248 4.57462C20.6248 5.37047 19.9766 6.01729 19.1808 6.01729C19.0837 6.01729 18.988 6.00772 18.8963 5.98857L17.7258 8.0179C17.6437 8.16012 17.4906 8.24901 17.3265 8.24901H13.9871V7.32734H17.0612L18.099 5.52776L18.0977 5.52639ZM14.5928 2.34155C14.5928 1.5457 15.241 0.897504 16.0368 0.897504C16.8327 0.897504 17.4795 1.5457 17.4795 2.34155C17.4795 3.1374 16.8327 3.78422 16.0368 3.78422C15.241 3.78422 14.5928 3.1374 14.5928 2.34155ZM21.4587 7.06611C22.2546 7.06611 22.9014 7.71293 22.9014 8.50878C22.9014 9.30464 22.2546 9.95283 21.4587 9.95283C21.3617 9.95283 21.2659 9.94325 21.173 9.92411L20.0339 11.896C19.9518 12.0382 19.7986 12.1257 19.6346 12.1257H13.9841V11.2041H19.3678L20.3743 9.46189C20.15 9.20755 20.0133 8.87251 20.0133 8.50739C20.0133 7.71154 20.6615 7.06471 21.4573 7.06471L21.4587 7.06611ZM17.4809 25.8005C17.4809 26.5964 16.8341 27.2432 16.0382 27.2432C15.2424 27.2432 14.5942 26.5964 14.5942 25.8005C14.5942 25.0047 15.2424 24.3565 16.0382 24.3565C16.8341 24.3565 17.4809 25.0047 17.4809 25.8005ZM24.5863 14.0703C24.5863 14.8662 23.9381 15.513 23.1422 15.513C22.5077 15.513 21.9689 15.1014 21.7762 14.5312H13.9885V13.6095H21.7762C21.969 13.0379 22.5091 12.6263 23.1436 12.6263C23.9395 12.6263 24.5876 13.2745 24.5876 14.0703H24.5863ZM20.6249 23.5674C20.6249 24.3633 19.9767 25.0101 19.1808 25.0101C18.385 25.0101 17.7382 24.3633 17.7382 23.5674C17.7382 23.2023 17.8749 22.8686 18.0978 22.6143L17.0599 20.8161H13.9859V19.8944H17.3252C17.4907 19.8944 17.6425 19.9819 17.7245 20.1255L18.8951 22.1521C18.9867 22.1329 19.0824 22.1234 19.1795 22.1234C19.9754 22.1234 20.6236 22.7716 20.6236 23.5674L20.6249 23.5674ZM22.9017 19.6305C22.9017 20.4264 22.2549 21.0732 21.459 21.0732C20.6632 21.0732 20.015 20.4264 20.015 19.6305C20.015 19.2654 20.1517 18.9317 20.376 18.676L19.3709 16.9338H13.9871V16.0122H19.6376C19.8017 16.0122 19.9535 16.1011 20.0369 16.2419L21.176 18.2138C21.2677 18.1946 21.3634 18.1851 21.4605 18.1851C22.2563 18.1851 22.9031 18.8333 22.9031 19.6291L22.9017 19.6305Z" fill="white"/>
</svg>
