<svg width="29" height="29" viewBox="0 0 29 29" fill="none" xmlns="http://www.w3.org/2000/svg">
<path d="M22.3213 10.1061C22.3627 10.1061 22.4042 10.1104 22.4456 10.1175C22.833 10.1847 23.0916 10.5534 23.023 10.9407L22.247 15.3712C22.1869 15.717 21.8868 15.96 21.5466 15.96C21.5066 15.96 21.4652 15.9572 21.4237 15.95C21.0364 15.8814 20.7777 15.5127 20.8449 15.1254L21.6224 10.6949C21.6824 10.3491 21.9826 10.1061 22.3213 10.1061ZM11.9636 10.0975C12.3109 10.0975 12.6139 10.3505 12.6668 10.7035L13.3343 15.1526C13.3929 15.5399 13.1256 15.9029 12.7369 15.9615C12.7011 15.9672 12.6654 15.9686 12.6311 15.9686C12.2838 15.9686 11.9808 15.7157 11.9279 15.3627L11.259 10.915C11.2019 10.5263 11.4691 10.1633 11.8579 10.1047C11.8936 10.1004 11.9293 10.0975 11.9636 10.0975ZM17.1159 9.80738C17.509 9.80738 17.8277 10.1261 17.8277 10.5191V15.5485C17.8277 15.9415 17.509 16.2588 17.1159 16.2588C16.7229 16.2588 16.4042 15.9415 16.4042 15.5485V10.5191C16.4042 10.1261 16.7229 9.80738 17.1159 9.80738ZM1.14608 0.517365V0.520224L1.14465 0.521653C1.14465 0.518795 1.14465 0.518795 1.14322 0.518795C0.795924 0.518795 0.494374 0.776051 0.448639 1.13051C0.397189 1.5164 0.668737 1.8694 1.05461 1.92088L3.88446 2.29389C4.13171 2.32533 4.32607 2.52256 4.35468 2.77125L7.18453 18.4996C7.24456 18.8126 7.38034 19.0999 7.57042 19.3414C7.04305 19.8174 6.71002 20.5063 6.71002 21.2737C6.71002 22.7115 7.87484 23.8763 9.31405 23.8763L9.40409 23.8778C9.11253 24.3437 8.94389 24.8939 8.94389 25.4856C8.94389 27.1606 10.3016 28.5198 11.9781 28.5198C13.6546 28.5198 15.0124 27.1607 15.0124 25.4856C15.0124 24.8953 14.8451 24.3437 14.5536 23.8778H14.5507H20.1333C19.8417 24.3437 19.6731 24.8939 19.6731 25.4856C19.6731 27.1606 21.0323 28.5198 22.7087 28.5198C24.3838 28.5198 25.743 27.1607 25.743 25.4856C25.743 23.8091 24.3838 22.4499 22.7087 22.4499C22.653 22.4499 9.3143 22.4528 9.3143 22.4528L9.31287 22.4542C8.66117 22.4528 8.13376 21.9254 8.13376 21.2737C8.13376 20.622 8.66113 20.0931 9.31287 20.0931L25.0555 20.0917C26.0431 20.0917 26.8606 19.3642 27.0021 18.4167L28.8472 8.17064C28.8672 8.05916 28.8915 7.94911 28.8915 7.83191C28.8915 6.75001 28.0197 5.87245 26.9392 5.86389L6.33005 5.76384L5.7412 2.51097C5.60114 1.66344 4.93085 1.01313 4.07616 0.897369L1.23918 0.522929C1.20774 0.520071 1.17609 0.517365 1.14608 0.517365Z" fill="white"/>
</svg>
