<svg width="43" height="23" viewBox="0 0 43 23" fill="none" xmlns="http://www.w3.org/2000/svg">
<path d="M7.27669 1.27612L6.17619 1.51735C5.26267 1.71861 4.68317 2.62497 4.88297 3.53707L5.50245 6.36898L4.21782 6.6516C3.80246 6.74153 3.44703 6.98847 3.21865 7.34672C2.98884 7.70499 2.91319 8.13176 3.00454 8.5457L4.06364 13.3815C4.15356 13.7969 4.40193 14.1523 4.76018 14.3807C5.01996 14.5462 5.31542 14.6319 5.61374 14.6319C5.72793 14.6319 5.84212 14.6205 5.95631 14.5948L7.24378 14.3122L7.86469 17.1455C8.03454 17.9177 8.73253 18.4772 9.52331 18.4772C9.64464 18.4772 9.76596 18.4644 9.88586 18.4387L10.9849 18.1975L7.27669 1.27612Z" fill="white"/>
<path d="M33.7741 0.825201L32.7463 0.59966C32.6278 0.573966 32.5051 0.559692 32.3837 0.559692C31.5901 0.559692 30.8935 1.1207 30.7264 1.89293L29.7158 6.50797C24.5011 5.53158 18.6374 5.53158 13.4256 6.50797L12.4149 1.89293C12.2451 1.12067 11.547 0.561118 10.7576 0.561118C10.6363 0.561118 10.5135 0.573965 10.395 0.59966L9.2959 0.839475L13.0017 17.7608L14.0995 17.521C14.542 17.4239 14.9203 17.1598 15.1658 16.7758C15.4113 16.3933 15.4913 15.9393 15.3942 15.5011L14.3436 10.7019C19.0299 9.91393 24.1105 9.91393 28.7982 10.7019L27.7462 15.504C27.5492 16.4176 28.1302 17.3241 29.0423 17.5224L30.0715 17.748L33.7741 0.825201Z" fill="white"/>
<path d="M38.4648 6.64128L37.1784 6.3589L37.7974 3.52939C37.8943 3.08872 37.8131 2.63519 37.5677 2.25297C37.3224 1.87075 36.946 1.60693 36.5052 1.50992L35.3372 1.25464L31.6348 18.162L32.8014 18.4172C32.9197 18.4429 33.0424 18.4557 33.1636 18.4557C33.9537 18.4557 34.6497 17.8967 34.8208 17.1237L35.4398 14.2942L36.7247 14.5766C36.8388 14.6023 36.9529 14.6137 37.0684 14.6137C37.3679 14.6137 37.6631 14.5281 37.9227 14.3612C38.2807 14.1316 38.5274 13.7765 38.6172 13.3643L39.6783 8.53118C39.8637 7.67546 39.3205 6.8281 38.4648 6.64128Z" fill="white"/>
</svg>
