<svg width="26" height="26" viewBox="0 0 26 26" fill="none" xmlns="http://www.w3.org/2000/svg">
<path fill-rule="evenodd" clip-rule="evenodd" d="M1.68388 4.57459C0.875977 6.16018 0.875977 8.23586 0.875977 12.3872V13.3755C0.875977 17.5269 0.875977 19.6025 1.68388 21.1882C2.39453 22.5828 3.52849 23.7167 4.92323 24.4274C6.50882 25.2354 8.58449 25.2354 12.7358 25.2354H13.7241C17.8755 25.2354 19.9512 25.2354 21.5368 24.4274C22.9314 23.7167 24.0654 22.5828 24.776 21.1882C25.584 19.6025 25.584 17.5269 25.584 13.3755V12.3872C25.584 8.23586 25.584 6.16018 24.776 4.57459C24.0654 3.17986 22.9314 2.0459 21.5368 1.33525C19.9512 0.527344 17.8755 0.527344 13.7241 0.527344H12.7358C8.58449 0.527344 6.50882 0.527344 4.92323 1.33525C3.52849 2.0459 2.39453 3.17986 1.68388 4.57459ZM20.0247 7.94018C21.0481 7.94018 21.8778 7.11051 21.8778 6.08708C21.8778 5.06363 21.0481 4.23398 20.0247 4.23398C19.0013 4.23398 18.1716 5.06363 18.1716 6.08708C18.1716 7.11051 19.0013 7.94018 20.0247 7.94018ZM19.407 12.8818C19.407 16.2932 16.6414 19.0588 13.23 19.0588C9.81851 19.0588 7.05298 16.2932 7.05298 12.8818C7.05298 9.47031 9.81851 6.70478 13.23 6.70478C16.6414 6.70478 19.407 9.47031 19.407 12.8818ZM16.9362 12.8818C16.9362 14.9287 15.2769 16.588 13.23 16.588C11.1831 16.588 9.52378 14.9287 9.52378 12.8818C9.52378 10.8349 11.1831 9.17558 13.23 9.17558C15.2769 9.17558 16.9362 10.8349 16.9362 12.8818Z" fill="#F2FF00"/>
</svg>
