<svg width="25" height="26" viewBox="0 0 25 26" fill="none" xmlns="http://www.w3.org/2000/svg">
<path fill-rule="evenodd" clip-rule="evenodd" d="M12.646 0.527344C5.82306 0.527344 0.291992 6.05842 0.291992 12.8813C0.291992 19.7043 5.82306 25.2354 12.646 25.2354C19.469 25.2354 25 19.7043 25 12.8813C25 6.05842 19.469 0.527344 12.646 0.527344ZM9.66141 7.31436C9.66141 8.13903 8.9466 8.80755 8.06484 8.80755C7.18309 8.80755 6.46828 8.13903 6.46828 7.31436C6.46828 6.48968 7.18309 5.82116 8.06484 5.82116C8.9466 5.82116 9.66141 6.48968 9.66141 7.31436ZM6.68661 9.90513H9.41578V18.1752H6.68661V9.90513ZM11.0806 9.90513H13.8097V10.9662C14.2678 10.3834 15.1473 9.73921 16.5662 9.73921C18.9553 9.73921 19.6816 11.0234 19.7048 13.8104V18.1752H16.9756C16.9756 17.6358 16.9718 17.0936 16.968 16.5516C16.9628 15.7828 16.9574 15.014 16.9628 14.2546C16.9699 13.264 16.9789 11.9854 15.4745 11.9854C14.1433 11.9854 13.8097 12.9667 13.8097 13.9438V18.1752H11.0806V9.90513Z" fill="#F2FF00"/>
</svg>
