<svg width="39" height="29" viewBox="0 0 39 29" fill="none" xmlns="http://www.w3.org/2000/svg">
<path d="M19.1403 11.2333C16.272 11.2333 13.9385 13.5668 13.9385 16.4351C13.9385 19.3034 16.272 21.6369 19.1403 21.6369C22.0086 21.6369 24.3421 19.3034 24.3421 16.4351C24.3421 13.5668 22.0086 11.2333 19.1403 11.2333Z" fill="white"/>
<path d="M35.2937 4.73975H25.5746L24.8901 1.91816C24.8901 1.31321 24.3998 0.73938 23.7949 0.73938H15.034C14.4295 0.73938 13.9388 1.31366 13.9388 1.91816L13.2543 4.73975H2.98759C1.47589 4.73975 0.25 5.6145 0.25 7.12664V25.7435C0.25 27.2552 1.47589 28.742 2.98759 28.742H35.2937C36.8059 28.742 38.0313 27.2552 38.0313 25.7435V7.12664C38.0313 5.6145 36.8059 4.73975 35.2937 4.73975ZM19.1407 24.9221C14.4536 24.9221 10.6536 21.1222 10.6536 16.4346C10.6536 11.7475 14.4536 7.94761 19.1407 7.94761C23.8282 7.94761 27.6277 11.7475 27.6277 16.4346C27.6277 21.1222 23.8282 24.9221 19.1407 24.9221Z" fill="white"/>
</svg>
