<svg width="18" height="29" viewBox="0 0 18 29" fill="none" xmlns="http://www.w3.org/2000/svg">
<path d="M8.20743 0.0662842H10.0299C11.4222 0.0662842 12.6864 0.634871 13.6027 1.55125C14.519 2.46762 15.0876 3.73179 15.0876 5.12402V14.1071C15.0876 15.4982 14.5191 16.7635 13.6027 17.6799C12.6863 18.5962 11.4221 19.1648 10.0299 19.1648H8.20743C6.81513 19.1648 5.55097 18.5962 4.63465 17.6799C3.71828 16.7635 3.14969 15.4993 3.14969 14.1071V5.12402C3.14969 3.73287 3.71828 2.46756 4.63465 1.55125C5.55103 0.63493 6.81519 0.0662842 8.20743 0.0662842ZM4.66892 28.0689C4.21701 28.0689 3.84863 27.7017 3.84863 27.2486C3.84863 26.7967 4.21587 26.4283 4.66892 26.4283H13.5697C14.0216 26.4283 14.39 26.7956 14.39 27.2486C14.39 27.7005 14.0227 28.0689 13.5697 28.0689H4.66892ZM0.632812 14.1779C0.632812 13.726 1.00005 13.3576 1.4531 13.3576C1.905 13.3576 2.27338 13.7248 2.27338 14.1779C2.27338 15.7441 2.9129 17.1661 3.94367 18.197C4.97444 19.2278 6.39764 19.8673 7.96279 19.8673H10.2783C11.8445 19.8673 13.2665 19.2278 14.2974 18.197C15.3282 17.1662 15.9677 15.7442 15.9677 14.1779C15.9677 13.726 16.335 13.3576 16.788 13.3576C17.2399 13.3576 17.6072 13.7248 17.6072 14.1779C17.6072 16.1891 16.7834 18.0207 15.4552 19.3512C14.1224 20.6817 12.2907 21.5066 10.2783 21.5066H9.94087V24.1333H12.1786C12.6305 24.1333 12.9989 24.5006 12.9989 24.9536C12.9989 25.4055 12.6317 25.7739 12.1786 25.7739H6.0625C5.6106 25.7739 5.24222 25.4066 5.24222 24.9536C5.24222 24.5017 5.60946 24.1333 6.0625 24.1333H8.30024V21.5066H7.96276C5.95153 21.5066 4.11995 20.6829 2.78942 19.3546C1.45889 18.0218 0.634043 16.1901 0.634043 14.1778L0.632812 14.1779Z" fill="white"/>
</svg>
