<svg width="23" height="29" viewBox="0 0 23 29" fill="none" xmlns="http://www.w3.org/2000/svg">
<path d="M9.62912 20.5445L9.34957 20.3768C9.31797 20.4169 9.27786 20.457 9.24505 20.4886C8.66894 21.0647 7.81208 21.3053 6.99655 21.0805C6.82032 21.0319 6.63681 21.0003 6.44477 20.976C5.11635 20.824 3.77212 21.4001 3.01972 22.5207C1.86753 24.2648 2.43511 26.6178 4.26065 27.634C5.96465 28.5784 8.12565 27.9221 9.12597 26.2497L11.0791 22.9681L9.62912 20.5445ZM7.53255 25.4182C7.02815 26.2666 5.93188 26.5461 5.08352 26.0429C4.23516 25.5385 3.96291 24.435 4.4673 23.5866C4.97169 22.7383 6.06797 22.466 6.91633 22.9704C7.76469 23.4821 8.04422 24.5699 7.53255 25.4182ZM2.63455 0.0663775H3.69925V3.35515H0.90625V1.80308C0.90625 0.842926 1.68289 0.0663775 2.63455 0.0663775ZM0.90625 4.15634H3.69925V8.84525H0.90625V4.15634ZM0.90625 9.64519H3.69925V14.3341H0.90625V9.64519ZM0.90625 15.1353H3.69925V18.4241H2.63455C1.68168 18.4241 0.90625 17.6474 0.90625 16.6873V15.1353ZM18.5916 0.0666886V18.4241H13.4699L8.42095 9.98185C8.1487 9.52609 7.66861 9.24531 7.14113 9.24531C6.86888 9.24531 6.59663 9.32553 6.37298 9.46165C5.70938 9.85422 5.24509 10.4862 5.05306 11.2386C4.86953 11.9824 4.98135 12.759 5.37269 13.4153L8.36501 18.4253L4.5 18.4241V0.0667521L18.5916 0.0666886ZM22.1856 1.80348V3.35555H19.3926V0.0667819H20.4487C21.4089 0.0667819 22.1856 0.84333 22.1856 1.80348ZM19.3926 4.15649H22.1856V8.8454H19.3926V4.15649ZM19.3926 9.64535H22.1856V14.3343H19.3926V9.64535ZM19.3926 15.1355H22.1856V16.6875C22.1856 17.6477 21.4089 18.4243 20.4488 18.4243H19.3926L19.3926 15.1355ZM7.73314 10.3905C7.5326 10.0539 7.10843 9.95055 6.78027 10.1499C5.79578 10.7345 5.46762 12.0228 6.05954 13.0073L10.909 21.1297L13.3021 19.7052L7.73314 10.3905ZM11.5421 19.8573C11.3416 19.8573 11.1739 19.6896 11.1739 19.4818C11.1739 19.2813 11.3416 19.1135 11.5421 19.1135C11.75 19.1135 11.9177 19.2812 11.9177 19.4818C11.9177 19.6896 11.75 19.8573 11.5421 19.8573ZM20.0646 22.5215C19.3208 21.4009 17.9754 20.8248 16.6396 20.9767C16.4475 21.001 16.264 21.0326 16.1036 21.0813C15.2795 21.2976 14.4227 21.0655 13.8551 20.4894C13.815 20.4578 13.7834 20.4177 13.7506 20.3776L11.3173 21.8178L11.541 22.1933L13.9657 26.2503C14.966 27.9227 17.1269 28.579 18.8235 27.6347C20.6491 26.6198 21.2326 24.267 20.0646 22.5215ZM18.0082 26.0424C17.1598 26.5468 16.0635 26.2745 15.5591 25.4262C15.0475 24.5778 15.327 23.473 16.1754 22.9698C17.0237 22.4655 18.12 22.7377 18.6244 23.5861C19.1361 24.4344 18.8565 25.5392 18.0082 26.0424Z" fill="white"/>
</svg>
